<?xml version="1.0" standalone="no"?>
<!DOCTYPE svg PUBLIC "-//W3C//DTD SVG 20010904//EN"
 "http://www.w3.org/TR/2001/REC-SVG-20010904/DTD/svg10.dtd">
<svg version="1.0" xmlns="http://www.w3.org/2000/svg"
 width="700.000000pt" height="700.000000pt" viewBox="0 0 700.000000 700.000000"
 preserveAspectRatio="xMidYMid meet">
<metadata>
Created by potrace 1.14, written by Peter Selinger 2001-2017
</metadata>
<g transform="translate(0.000000,700.000000) scale(0.100000,-0.100000)"
fill="#000000" stroke="none">
<path d="M5405 5193 c-11 -2 -36 -9 -55 -15 -27 -8 -313 -288 -1305 -1279
l-1270 -1269 -530 531 c-418 419 -541 536 -580 555 -118 56 -258 9 -323 -110
-24 -44 -23 -169 2 -216 10 -19 302 -319 650 -667 484 -485 641 -637 676 -652
55 -25 145 -27 198 -6 26 11 433 412 1401 1378 1469 1468 1411 1405 1411 1512
0 92 -62 186 -145 220 -37 16 -103 25 -130 18z"/>
</g>
</svg>
